<svg xmlns="http://www.w3.org/2000/svg" viewBox="0 0 1280 280" width="1280" height="280">
  <defs>
    <linearGradient id="fade" x1="0" y1="0" x2="1" y2="0">
      <stop offset="0%" stop-color="#060c14" stop-opacity="0"/>
      <stop offset="55%" stop-color="#060c14" stop-opacity="0.75"/>
      <stop offset="100%" stop-color="#060c14" stop-opacity="1"/>
    </linearGradient>
    <radialGradient id="glow-a" cx="50%" cy="50%" r="50%">
      <stop offset="0%" stop-color="#1d9e75" stop-opacity="0.38"/>
      <stop offset="100%" stop-color="#1d9e75" stop-opacity="0"/>
    </radialGradient>
    <radialGradient id="glow-b" cx="50%" cy="50%" r="50%">
      <stop offset="0%" stop-color="#1d9e75" stop-opacity="0.25"/>
      <stop offset="100%" stop-color="#1d9e75" stop-opacity="0"/>
    </radialGradient>
  </defs>

  <!-- Background -->
  <rect width="1280" height="280" fill="#060c14"/>

  <!-- Inactive connections -->
  <g stroke="#2a4a6e" stroke-width="0.6" opacity="0.35" fill="none">
    <line x1="38"  y1="38"  x2="82"  y2="118"/>
    <line x1="38"  y1="38"  x2="142" y2="52"/>
    <line x1="82"  y1="118" x2="112" y2="183"/>
    <line x1="112" y1="183" x2="52"  y2="213"/>
    <line x1="112" y1="183" x2="172" y2="143"/>
    <line x1="142" y1="52"  x2="172" y2="143"/>
    <line x1="172" y1="143" x2="202" y2="223"/>
    <line x1="202" y1="223" x2="242" y2="82"/>
    <line x1="242" y1="82"  x2="302" y2="32"/>
    <line x1="242" y1="82"  x2="272" y2="173"/>
    <line x1="272" y1="173" x2="332" y2="127"/>
    <line x1="302" y1="32"  x2="332" y2="127"/>
    <line x1="332" y1="127" x2="362" y2="202"/>
    <line x1="362" y1="202" x2="452" y2="213"/>
    <line x1="392" y1="62"  x2="422" y2="143"/>
    <line x1="392" y1="62"  x2="482" y2="88"/>
    <line x1="422" y1="143" x2="452" y2="213"/>
    <line x1="452" y1="213" x2="472" y2="132"/>
    <line x1="472" y1="132" x2="512" y2="168"/>
    <line x1="482" y1="88"  x2="542" y2="42"/>
    <line x1="512" y1="168" x2="532" y2="202"/>
    <line x1="542" y1="42"  x2="557" y2="232"/>
  </g>

  <!-- Active connections -->
  <g stroke="#1d9e75" stroke-width="0.8" opacity="0.32" fill="none">
    <line x1="82"  y1="118" x2="97"  y2="57"/>
    <line x1="97"  y1="57"  x2="142" y2="52"/>
    <line x1="172" y1="143" x2="222" y2="162"/>
    <line x1="202" y1="223" x2="222" y2="162"/>
    <line x1="222" y1="162" x2="272" y2="173"/>
    <line x1="302" y1="32"  x2="317" y2="92"/>
    <line x1="317" y1="92"  x2="332" y2="127"/>
    <line x1="317" y1="92"  x2="392" y2="62"/>
    <line x1="362" y1="202" x2="402" y2="182"/>
    <line x1="402" y1="182" x2="452" y2="213"/>
    <line x1="422" y1="143" x2="472" y2="132"/>
    <line x1="452" y1="213" x2="472" y2="132"/>
    <line x1="472" y1="132" x2="532" y2="202"/>
    <line x1="512" y1="168" x2="532" y2="202"/>
  </g>

  <!-- Inactive nodes -->
  <g fill="#1a3456" stroke="#2a5580" stroke-width="0.8">
    <circle cx="38"  cy="38"  r="4"/>
    <circle cx="82"  cy="118" r="4"/>
    <circle cx="112" cy="183" r="4"/>
    <circle cx="52"  cy="213" r="3.5"/>
    <circle cx="142" cy="52"  r="4"/>
    <circle cx="172" cy="143" r="4"/>
    <circle cx="202" cy="223" r="3.5"/>
    <circle cx="242" cy="82"  r="4"/>
    <circle cx="272" cy="173" r="4"/>
    <circle cx="302" cy="32"  r="3.5"/>
    <circle cx="332" cy="127" r="4"/>
    <circle cx="362" cy="202" r="4"/>
    <circle cx="392" cy="62"  r="4"/>
    <circle cx="422" cy="143" r="4"/>
    <circle cx="452" cy="213" r="3.5"/>
    <circle cx="482" cy="88"  r="4"/>
    <circle cx="512" cy="168" r="4"/>
    <circle cx="542" cy="42"  r="3.5"/>
    <circle cx="557" cy="232" r="3.5"/>
  </g>

  <!-- Active node glows -->
  <ellipse cx="97"  cy="57"  rx="20" ry="20" fill="url(#glow-a)"/>
  <ellipse cx="222" cy="162" rx="20" ry="20" fill="url(#glow-a)"/>
  <ellipse cx="317" cy="92"  rx="20" ry="20" fill="url(#glow-b)"/>
  <ellipse cx="402" cy="182" rx="20" ry="20" fill="url(#glow-b)"/>
  <ellipse cx="472" cy="132" rx="20" ry="20" fill="url(#glow-a)"/>
  <ellipse cx="532" cy="202" rx="20" ry="20" fill="url(#glow-b)"/>

  <!-- Active node rings -->
  <g fill="none" stroke="#1d9e75" stroke-width="0.8" opacity="0.45">
    <circle cx="97"  cy="57"  r="11"/>
    <circle cx="222" cy="162" r="11"/>
    <circle cx="317" cy="92"  r="11"/>
    <circle cx="402" cy="182" r="11"/>
    <circle cx="472" cy="132" r="11"/>
    <circle cx="532" cy="202" r="11"/>
  </g>

  <!-- Active nodes -->
  <g fill="#1d9e75" stroke="#5dcaa5" stroke-width="1">
    <circle cx="97"  cy="57"  r="5.5"/>
    <circle cx="222" cy="162" r="5.5"/>
    <circle cx="317" cy="92"  r="5.5"/>
    <circle cx="402" cy="182" r="5.5"/>
    <circle cx="472" cy="132" r="5.5"/>
    <circle cx="532" cy="202" r="5.5"/>
  </g>

  <!-- Fade overlay -->
  <rect width="1280" height="280" fill="url(#fade)"/>

  <!-- Title: Hippocampus (capital H) -->
  <text x="668" y="108"
        font-family="'Inter','Segoe UI','Helvetica Neue',sans-serif"
        font-size="58" font-weight="700" letter-spacing="-1.5"
        fill="#ffffff">Hippocampus</text>

  <!-- Subtitle -->
  <text x="670" y="140"
        font-family="'Inter','Segoe UI','Helvetica Neue',sans-serif"
        font-size="15" font-weight="400" letter-spacing="0.3"
        fill="#8b949e">retrieval engineered from memory science</text>

  <!-- Divider -->
  <line x1="670" y1="160" x2="1240" y2="160" stroke="#1e3a5f" stroke-width="0.8"/>

  <!-- Pill 1: CF Accuracy -->
  <rect x="670" y="174" width="162" height="26" rx="5" fill="#0d2620" stroke="#1d9e75" stroke-width="0.8"/>
  <text x="681" y="191"
        font-family="'Inter','Segoe UI','Helvetica Neue',sans-serif"
        font-size="12" font-weight="500" fill="#5dcaa5">84.09% CF accuracy</text>

  <!-- Pill 2: Token efficiency -->
  <rect x="842" y="174" width="160" height="26" rx="5" fill="#0d1e2e" stroke="#378add" stroke-width="0.8"/>
  <text x="853" y="191"
        font-family="'Inter','Segoe UI','Helvetica Neue',sans-serif"
        font-size="12" font-weight="500" fill="#85b7eb">10× token efficiency</text>

  <!-- Pill 3: Deterministic recall -->
  <rect x="1012" y="174" width="168" height="26" rx="5" fill="#1a0d2e" stroke="#7f77dd" stroke-width="0.8"/>
  <text x="1023" y="191"
        font-family="'Inter','Segoe UI','Helvetica Neue',sans-serif"
        font-size="12" font-weight="500" fill="#afa9ec">Deterministic recall</text>

  <!-- Bottom attribution -->
  <text x="670" y="242"
        font-family="'Inter','Segoe UI','Helvetica Neue',sans-serif"
        font-size="11" font-weight="400" fill="#3a4150">
    bricbybricsolutions-dev / hippocampus-evals
  </text>

  <!-- Sparse coding label -->
  <text x="38" y="264"
        font-family="'Inter','Segoe UI','Helvetica Neue',sans-serif"
        font-size="10" font-weight="400" fill="#1e3a5f">
    6 active · sparse distributed representation
  </text>
</svg>
